<svg xmlns="http://www.w3.org/2000/svg" xmlns:xlink="http://www.w3.org/1999/xlink" xmlns:inkscape="http://www.inkscape.org/namespaces/inkscape" version="1.1" width="922.7054" height="640" viewBox="0 0 922.7054 640">
<g inkscape:groupmode="layer" inkscape:label="Layer 1">
<path transform="matrix(1,0,0,-1,1,718.9625)" d="M461.5722 717.9625H456.9766L409.2772 673.848C383.6784 652.5119 342.7311 612.652 323.8529 597.9385 316.2461 592.0118 311.4278 585.9448 304.7207 581.5791 308.2025 596.0968 304.649 627.8077 309.1289 637.3114 287.3531 637.2028 269.5334 637.92 250.9676 639.5261 250.933 627.249 249.4908 623.9418 248.7555 614.8111L246.5487 538.6022C246.0251 527.1089 243.4507 527.601 236.9684 521.3064L96.3516 379.7186 147.8772 379.6577 147.8716 140.017C152.0546 142.0914 163.9874 145.1237 169.9699 146.9704 177.0763 149.1664 184.9929 151.59 192.3301 153.7651L289.3088 168.7725C298.8283 169.8066 308.5464 168.6453 318.1195 169.1453 328.4858 169.6878 330.2929 171.4552 342.7444 171.3521L342.8819 294.4981C334.8595 295.2709 320.9318 297.451 313.8012 298.9882L390.3197 367.9526C395.9181 372.8526 399.4872 377.5992 405.1653 382.2083L512.4047 478.8564C520.3874 487.0054 552.098 512.2361 557.8206 520.7641 571.8121 511.4849 654.7652 432.7311 667.5551 424.5871L667.542 467.0742C681.9936 467.1193 687.5974 464.8836 703.4066 464.8201L703.3853 381.8988C727.1663 369.6695 748.6109 349.7278 772.8945 337.2182 772.789 358.4908 775.2178 371.1118 775.0641 390.9107L817.7182 390.9345 505.745 677.105C497.8366 684.847 467.7559 709.0353 461.5722 717.9625ZM302.379 435.7208 351.7747 435.6916 351.7274 478.2504 302.3552 478.2742ZM356.2197 435.8718 405.5281 435.7939 405.491 478.2954 356.0902 478.29ZM356.1746 487.3598 405.5437 487.2436 405.5014 532.0352 356.1534 532.0565ZM302.4241 487.3283 349.4438 487.2651 349.4514 532.0012 302.3422 532.0406Z" fill="#FFFFFF" fill-rule="evenodd"/>
<path transform="matrix(1,0,0,-1,1,718.9625)" d="M542.1178 175.9003C568.436 175.9215 588.9492 175.8631 614.4449 188.6083 628.0101 195.3896 639.4164 205.8698 648.4175 217.4111 673.5189 249.5979 677.0035 284.2004 676.4134 330.2464L549.0207 330.2887 548.8832 274.6278 611.2485 274.297C608.0788 218.427 493.0529 199.84 492.8837 305.7721 492.8332 338.7767 502.1759 370.3524 530.5765 382.2639 566.7639 397.4406 586.8723 375.2232 603.1973 357.8956 614.5719 363.354 651.0132 379.4329 658.4349 386.418 623.7343 458.896 490.841 471.1966 444.9696 380.5177 394.2485 280.2475 462.8186 175.8368 542.1178 175.9003" fill="#ee2424" fill-rule="evenodd"/>
<path transform="matrix(1,0,0,-1,1,718.9625)" d="M0 70.7803V68.4731C43.5745 77.8765 51.7978 82.6628 104.6594 91.3572 220.773 110.4497 339.2731 117.5828 461.4718 117.5828 505.0916 117.5828 545.7053 115.4767 586.9993 115.429L704.9755 105.7161C742.536 100.9908 780.9355 96.1013 815.9771 89.0209L920.7054 65.9781V68.3223C893.2654 82.3717 857.7235 100.8054 824.3909 108.661 748.5976 126.5207 732.7463 132.315 652.9686 143.2979 632.4446 146.1237 610.812 145.0602 590.4839 148.0209L461.4718 153.413C428.224 153.4158 383.4323 148.7458 362.935 148.8753 311.4122 149.1956 255.2854 143.4144 207.7367 133.8523 120.3678 116.2837 125.2522 121.758 47.3845 90.3569 39.6746 87.2481 32.0837 84.0362 23.6591 80.4852 18.0499 78.1226 15.6818 77.0139 11.1654 75.0189 7.2388 73.2858 3.7755 72.3759 0 70.7803" fill="#ee2424" fill-rule="evenodd"/>
</g>
</svg>