<svg xmlns="http://www.w3.org/2000/svg" xmlns:xlink="http://www.w3.org/1999/xlink" xmlns:inkscape="http://www.inkscape.org/namespaces/inkscape" version="1.1" width="922.7054" height="719.9625" viewBox="0 0 922.7054 719.9625">
<g inkscape:groupmode="layer" inkscape:label="Layer 1">
<path transform="matrix(1,0,0,-1,1,718.9625)" d="M461.5722 717.9625H456.9766L409.2772 673.848C383.6784 652.5119 342.7311 612.652 323.8529 597.9385 316.2461 592.0118 311.4278 585.9448 304.7207 581.5791 308.2025 596.0968 304.649 627.8077 309.1289 637.3114 287.3531 637.2028 269.5334 637.92 250.9676 639.5261 250.933 627.249 249.4908 623.9418 248.7555 614.8111L246.5487 538.6022C246.0251 527.1089 243.4507 527.601 236.9684 521.3064L96.3516 379.7186 147.8772 379.6577 147.8716 140.017C152.0546 142.0914 163.9874 145.1237 169.9699 146.9704 177.0763 149.1664 184.9929 151.59 192.3301 153.7651L289.3088 168.7725C298.8283 169.8066 308.5464 168.6453 318.1195 169.1453 328.4858 169.6878 330.2929 171.4552 342.7444 171.3521L342.8819 294.4981C334.8595 295.2709 320.9318 297.451 313.8012 298.9882L390.3197 367.9526C395.9181 372.8526 399.4872 377.5992 405.1653 382.2083L512.4047 478.8564C520.3874 487.0054 552.098 512.2361 557.8206 520.7641 571.8121 511.4849 654.7652 432.7311 667.5551 424.5871L667.542 467.0742C681.9936 467.1193 687.5974 464.8836 703.4066 464.8201L703.3853 381.8988C727.1663 369.6695 748.6109 349.7278 772.8945 337.2182 772.789 358.4908 775.2178 371.1118 775.0641 390.9107L817.7182 390.9345 505.745 677.105C497.8366 684.847 467.7559 709.0353 461.5722 717.9625ZM302.379 435.7208 351.7747 435.6916 351.7274 478.2504 302.3552 478.2742ZM356.2197 435.8718 405.5281 435.7939 405.491 478.2954 356.0902 478.29ZM356.1746 487.3598 405.5437 487.2436 405.5014 532.0352 356.1534 532.0565ZM302.4241 487.3283 349.4438 487.2651 349.4514 532.0012 302.3422 532.0406Z" fill="#FFFFFF" fill-rule="evenodd"/>
<path transform="matrix(1,0,0,-1,1,718.9625)" d="M542.1178 175.9003C568.436 175.9215 588.9492 175.8631 614.4449 188.6083 628.0101 195.3896 639.4164 205.8698 648.4175 217.4111 673.5189 249.5979 677.0035 284.2004 676.4134 330.2464L549.0207 330.2887 548.8832 274.6278 611.2485 274.297C608.0788 218.427 493.0529 199.84 492.8837 305.7721 492.8332 338.7767 502.1759 370.3524 530.5765 382.2639 566.7639 397.4406 586.8723 375.2232 603.1973 357.8956 614.5719 363.354 651.0132 379.4329 658.4349 386.418 623.7343 458.896 490.841 471.1966 444.9696 380.5177 394.2485 280.2475 462.8186 175.8368 542.1178 175.9003" fill="#ee2424" fill-rule="evenodd"/>
<path transform="matrix(1,0,0,-1,1,718.9625)" d="M0 70.7803V68.4731C43.5745 77.8765 51.7978 82.6628 104.6594 91.3572 220.773 110.4497 339.2731 117.5828 461.4718 117.5828 505.0916 117.5828 545.7053 115.4767 586.9993 115.429L704.9755 105.7161C742.536 100.9908 780.9355 96.1013 815.9771 89.0209L920.7054 65.9781V68.3223C893.2654 82.3717 857.7235 100.8054 824.3909 108.661 748.5976 126.5207 732.7463 132.315 652.9686 143.2979 632.4446 146.1237 610.812 145.0602 590.4839 148.0209L461.4718 153.413C428.224 153.4158 383.4323 148.7458 362.935 148.8753 311.4122 149.1956 255.2854 143.4144 207.7367 133.8523 120.3678 116.2837 125.2522 121.758 47.3845 90.3569 39.6746 87.2481 32.0837 84.0362 23.6591 80.4852 18.0499 78.1226 15.6818 77.0139 11.1654 75.0189 7.2388 73.2858 3.7755 72.3759 0 70.7803" fill="#ee2424" fill-rule="evenodd"/>
<path transform="matrix(1,0,0,-1,1,718.9625)" d="M123.1248 28.8797 136.1537 25.5883 135.6046 23.4334C133.8752 16.647 130.6573 10.47 125.0966 6.061 119.7145 1.7935 113.3473 0 106.5206 0 100.1585 0 93.6196 1.1305 88.2045 4.65 83.1818 7.9149 79.6657 12.5597 77.3456 18.0527 74.8814 23.8867 73.728 30.0413 73.728 36.3716 73.728 42.8675 74.8687 49.3123 77.8552 55.1288 80.5961 60.4655 84.5561 64.6815 89.8172 67.5706 95.036 70.437 100.7059 71.7724 106.6572 71.7724 113.0822 71.7724 119.2173 70.2442 124.4112 66.3554 129.511 62.5371 132.726 57.3018 134.4932 51.2152L135.1443 48.9742 122.4077 45.9612 121.7849 47.9234C120.6964 51.3539 118.9372 54.9493 115.9977 57.1657 113.239 59.2455 109.9089 59.9638 106.5053 59.9638 102.5113 59.9638 98.5643 59.1395 95.2693 56.7836 92.2445 54.6211 90.1981 51.7439 89.0152 48.2216 87.7309 44.3979 87.0834 40.4515 87.0834 36.417 87.0834 31.8027 87.662 27.0462 89.3435 22.7234 90.6772 19.2951 92.759 16.4633 95.9281 14.5534 98.9742 12.7174 102.2516 11.8086 105.8077 11.8086 109.8349 11.8086 113.4986 12.8693 116.6097 15.4641 119.9903 18.2837 121.733 22.4198 122.6407 26.6326ZM139.2576 35.0218C139.2576 44.909 141.6206 54.5907 148.5884 61.922 155.0809 68.7538 163.3156 71.7724 172.6872 71.7724 178.8897 71.7724 184.7526 70.323 190.0919 67.1547 195.3357 64.0431 199.2932 59.6843 201.99 54.2174 204.8352 48.4506 206.0257 42.1832 206.0257 35.78 206.0257 29.2538 204.7669 22.8881 201.7777 17.0546 198.9746 11.5841 194.936 7.2445 189.5397 4.2911 184.2866 1.4162 178.6303 0 172.6418 0 166.35 0 160.4035 1.4791 155.0288 4.7699 149.8277 7.954 145.8771 12.3245 143.2117 17.8101 140.5763 23.2333 139.2576 28.9908 139.2576 35.0218ZM255.6218 24.6368V70.6808H268.3403V1.0919H256.0788L225.301 47.1359V1.0919H212.5826V70.6808H224.8441ZM275.5069 26.2624 287.8376 27.3711 288.0862 25.2224C288.3702 22.7693 289.0162 20.2093 290.4083 18.1361 291.7466 16.1433 293.8436 14.7852 296.0087 13.8359 298.8802 12.577 301.9898 12.0815 305.1113 12.0815 307.781 12.0815 310.5088 12.4217 313.0072 13.3999 314.7721 14.0907 316.5015 15.1092 317.624 16.6751 318.5478 17.964 319.0586 19.3745 319.0586 20.9633 319.0586 22.4495 318.6635 23.7645 317.7502 24.9409 316.6123 26.407 314.5323 27.4187 312.8409 28.0661 311.5672 28.5542 310.1559 28.9335 308.8406 29.2932 306.4122 29.9574 303.9619 30.5617 301.5142 31.1508 298.8995 31.7792 296.2766 32.4655 293.7172 33.2935 291.9404 33.8678 290.0764 34.5365 288.4232 35.411 285.3142 37.0551 282.5493 39.2703 280.6543 42.268 278.8707 45.0901 278.0212 48.2301 278.0212 51.567 278.0212 55.3544 279.1222 58.8509 281.1875 62.0158 283.424 65.4432 286.609 67.8152 290.3706 69.374 294.4392 71.06 298.779 71.7724 303.1702 71.7724 307.823 71.7724 312.4953 71.0793 316.802 69.2626 320.7002 67.6185 323.9725 65.1138 326.3023 61.566 328.5638 58.1221 329.7019 54.2744 329.8646 50.169L329.9494 48.0325 317.3893 47.0662 317.1603 49.208C316.8397 52.206 315.8481 55.0789 313.456 57.0393 310.8078 59.2095 306.8048 59.6908 303.5038 59.6908 300.407 59.6908 296.013 59.3388 293.4884 57.3129 291.8047 55.9616 290.7397 54.324 290.7397 52.1286 290.7397 50.4598 291.2956 49.1182 292.538 47.9993 294.5307 46.205 301.9439 44.4614 304.5396 43.8741 307.5469 43.1938 310.5624 42.4701 313.526 41.6177 315.4785 41.0564 317.5483 40.4192 319.3971 39.5717 323.0498 37.8972 326.4265 35.5374 328.6987 32.1676 330.8185 29.0237 331.7771 25.4764 331.7771 21.6916 331.7771 17.7049 330.6158 14.0454 328.4476 10.7022 326.1183 7.1104 322.8491 4.5221 318.9702 2.7488 314.7225 .8065 310.159 0 305.5056 0 300.2414 0 294.7133 .6619 289.842 2.7587 285.5577 4.6032 282.0699 7.4293 279.508 11.3278 276.9565 15.2104 275.6948 19.5352 275.565 24.1773ZM355.6378 58.5989H334.1633V70.6808H390.1944V58.5989H368.7202V1.0919H355.6378ZM436.7477 31.9813C436.9961 31.7837 437.2362 31.5802 437.4669 31.3707 440.3843 28.7158 442.8638 25.5674 444.9745 22.244L458.4073 1.0919H442.3827L433.1149 15.6787C431.2205 18.6599 429.2209 21.7114 427.0391 24.4919 426.0087 25.8055 424.6149 27.4365 423.1993 28.3496 422.208 28.9891 421.1291 29.4857 419.9848 29.7782 418.6919 30.0322 416.9891 30.0274 415.6824 30.0274H407.9225V1.0919H394.8401V70.6808H425.9339C430.3712 70.6808 435.7981 70.3877 439.9744 68.7719 443.5515 67.3875 446.307 64.9392 448.3015 61.6708 450.347 58.3191 451.3258 54.6279 451.3258 50.7027 451.3258 45.6571 449.7015 41.1687 446.2328 37.4882 443.6631 34.7621 440.3075 33.0508 436.7477 31.9813ZM503.0453 70.6808H516.1277V30.8361C516.1277 25.5183 515.6904 19.4386 513.7654 14.434 512.0405 9.949 508.9232 6.4981 504.8629 3.9614 500.0097 .9298 494.1275 0 488.4914 0 483.063 0 477.3203 .798 472.4932 3.424 468.2137 5.7523 465.0749 9.1491 463.208 13.6534 461.052 18.8552 460.5517 25.259 460.5517 30.8361V70.6808H473.6341V30.8511C473.6341 27.4037 473.7906 22.3929 475.0591 19.1477 475.933 16.9126 477.3977 15.2512 479.4854 14.0681 481.9884 12.6496 484.9024 12.1725 487.7484 12.1725 491.6511 12.1725 496.7918 12.7431 499.6236 15.7748 502.6955 19.0638 503.0453 26.6437 503.0453 30.8511ZM573.0216 28.8797 586.0505 25.5883 585.5014 23.4334C583.772 16.647 580.5541 10.47 574.9934 6.061 569.611 1.7935 563.2441 0 556.4174 0 550.0553 0 543.5161 1.1305 538.1014 4.65 533.0784 7.9149 529.5626 12.5597 527.2424 18.0527 524.778 23.8867 523.6248 30.0413 523.6248 36.3716 523.6248 42.8675 524.7655 49.3123 527.7521 55.1288 530.4926 60.4655 534.4526 64.6815 539.7137 67.5706 544.9329 70.437 550.6027 71.7724 556.5538 71.7724 562.9791 71.7724 569.1141 70.2442 574.308 66.3554 579.4078 62.5371 582.6226 57.3018 584.39 51.2152L585.0408 48.9742 572.3045 45.9612 571.6814 47.9234C570.5932 51.3539 568.8337 54.9493 565.8942 57.1657 563.1355 59.2455 559.8057 59.9638 556.4018 59.9638 552.4078 59.9638 548.4611 59.1395 545.1659 56.7836 542.1413 54.6211 540.095 51.7439 538.9121 48.2216 537.6277 44.3979 536.9803 40.4515 536.9803 36.417 536.9803 31.8027 537.5585 27.0462 539.2403 22.7234 540.574 19.2951 542.6558 16.4633 545.8246 14.5534 548.8707 12.7174 552.1484 11.8086 555.7045 11.8086 559.7317 11.8086 563.3955 12.8693 566.5065 15.4641 569.8871 18.2837 571.6295 22.4198 572.5372 26.6326ZM608.3541 58.5989H586.8797V70.6808H642.9104V58.5989H621.4365V1.0919H608.3541ZM648.83 1.0919V70.6808H661.9124V1.0919ZM670.0161 35.0218C670.0161 44.909 672.3791 54.5907 679.3466 61.922 685.8391 68.7538 694.074 71.7724 703.4457 71.7724 709.6479 71.7724 715.5111 70.323 720.8504 67.1547 726.0939 64.0431 730.0517 59.6843 732.7485 54.2174 735.5934 48.4506 736.7842 42.1832 736.7842 35.78 736.7842 29.2538 735.5251 22.8881 732.5362 17.0546 729.733 11.5841 725.6945 7.2445 720.2979 4.2911 715.045 1.4162 709.3888 0 703.4003 0 697.1085 0 691.162 1.4791 685.787 4.7699 680.5862 7.954 676.6356 12.3245 673.9702 17.8101 671.3345 23.2333 670.0161 28.9908 670.0161 35.0218ZM786.3803 24.6368V70.6808H799.0988V1.0919H786.8373L756.0595 47.1359V1.0919H743.3408V70.6808H755.6023ZM806.2654 26.2624 818.5961 27.3711 818.8447 25.2224C819.1284 22.7693 819.7744 20.2093 821.1665 18.1361 822.505 16.1433 824.6021 14.7852 826.7672 13.8359 829.6384 12.577 832.7483 12.0815 835.8698 12.0815 838.5392 12.0815 841.2673 12.4217 843.7657 13.3999 845.5306 14.0907 847.26 15.1092 848.3822 16.6751 849.3063 17.964 849.8171 19.3745 849.8171 20.9633 849.8171 22.4495 849.422 23.7645 848.5087 24.9409 847.3706 26.407 845.2908 27.4187 843.5993 28.0661 842.3257 28.5542 840.9144 28.9335 839.5991 29.2932 837.1704 29.9574 834.7204 30.5617 832.2727 31.1508 829.658 31.7792 827.0348 32.4655 824.4754 33.2935 822.6989 33.8678 820.8349 34.5365 819.1814 35.411 816.0727 37.0551 813.3075 39.2703 811.4128 42.268 809.6289 45.0901 808.7797 48.2301 808.7797 51.567 808.7797 55.3544 809.8807 58.8509 811.946 62.0158 814.1825 65.4432 817.3675 67.8152 821.1291 69.374 825.1977 71.06 829.5375 71.7724 833.9287 71.7724 838.5812 71.7724 843.2538 71.0793 847.5605 69.2626 851.4587 67.6185 854.731 65.1138 857.0608 61.566 859.322 58.1221 860.4601 54.2744 860.6231 50.169L860.7076 48.0325 848.1478 47.0662 847.9188 49.208C847.5979 52.206 846.6066 55.0789 844.2145 57.0393 841.5663 59.2095 837.5632 59.6908 834.2623 59.6908 831.1654 59.6908 826.7712 59.3388 824.2466 57.3129 822.5629 55.9616 821.4982 54.324 821.4982 52.1286 821.4982 50.4598 822.054 49.1182 823.2965 47.9993 825.2889 46.205 832.7024 44.4614 835.2981 43.8741 838.3054 43.1938 841.3209 42.4701 844.2845 41.6177 846.237 41.0564 848.3068 40.4192 850.1553 39.5717 853.808 37.8972 857.1849 35.5374 859.4572 32.1676 861.5769 29.0237 862.5356 25.4764 862.5356 21.6916 862.5356 17.7049 861.3743 14.0454 859.206 10.7022 856.8768 7.1104 853.6073 4.5221 849.7287 2.7488 845.4807 .8065 840.9175 0 836.2641 0 830.9999 0 825.4715 .6619 820.6004 2.7587 816.3159 4.6032 812.8284 7.4293 810.2665 11.3278 807.7147 15.2104 806.453 19.5352 806.3235 24.1773ZM152.6131 34.8701C152.6131 28.6705 153.9913 22.5136 158.3379 17.8696 162.2044 13.7387 166.9493 11.8086 172.5962 11.8086 178.3018 11.8086 183.0994 13.7081 186.9792 17.9178 191.4228 22.7392 192.6703 29.4406 192.6703 35.7951 192.6703 40.2058 192.0192 44.697 190.1843 48.7395 188.6338 52.1558 186.3499 54.9524 183.1686 56.9526 179.983 58.9552 176.4933 59.8728 172.7328 59.8728 167.2197 59.8728 162.5151 58.0076 158.5208 54.2061 153.58 49.5037 152.6131 41.3144 152.6131 34.8701ZM407.9225 41.927H424.205C426.8599 41.927 430.1464 42.0985 432.6622 43.02 434.2963 43.6187 435.6488 44.5654 436.5893 46.0414 437.4992 47.4695 437.9703 48.992 437.9703 50.6877 437.9703 53.0804 437.1695 55.0466 435.3766 56.6442 433.0976 58.6752 429.2056 59.0542 426.2978 59.0542H407.9225ZM683.3716 34.8701C683.3716 28.6705 684.7498 22.5136 689.0964 17.8696 692.9629 13.7387 697.7078 11.8086 703.3547 11.8086 709.0603 11.8086 713.8576 13.7081 717.7377 17.9178 722.1813 22.7392 723.4285 29.4406 723.4285 35.7951 723.4285 40.2058 722.7774 44.697 720.9425 48.7395 719.3923 52.1558 717.1084 54.9524 713.9268 56.9526 710.7415 58.9552 707.2517 59.8728 703.491 59.8728 697.9779 59.8728 693.2735 58.0076 689.279 54.2061 684.3382 49.5037 683.3716 41.3144 683.3716 34.8701" fill="#FFFFFF" fill-rule="evenodd"/>
</g>
</svg>
